<svg xmlns="http://www.w3.org/2000/svg"  viewBox="0 0 24 24"><path fill="currentColor" d="M8.5 8.5H6.25a1.75 1.75 0 0 0-1.75 1.75v7.5c0 .966.784 1.75 1.75 1.75h5c.882 0 1.61-.652 1.73-1.5h1.51a3.25 3.25 0 0 1-3.24 3h-5A3.25 3.25 0 0 1 3 17.75v-7.5A3.25 3.25 0 0 1 6.25 7H8.5zM17.75 3A3.25 3.25 0 0 1 21 6.25v7.5A3.25 3.25 0 0 1 17.75 17h-5a3.25 3.25 0 0 1-3.25-3.25v-7.5A3.25 3.25 0 0 1 12.75 3zm-5 1.5A1.75 1.75 0 0 0 11 6.25v7.5c0 .966.784 1.75 1.75 1.75h5a1.75 1.75 0 0 0 1.75-1.75v-7.5a1.75 1.75 0 0 0-1.75-1.75z"/></svg>